<svg width="30" height="30" viewBox="0 0 30 30" xmlns="http://www.w3.org/2000/svg" xmlns:sketch="http://www.bohemiancoding.com/sketch/ns"><title>arrow-right</title><desc>Created with Sketch.</desc><g sketch:type="MSLayerGroup"><path d="M22.439 13.817c.773.773.777 2.024-.005 2.806-.776.776-2.032.779-2.806.005l-12.228-12.228c-.773-.773-.777-2.024.005-2.806.776-.776 2.032-.779 2.806-.005l12.228 12.228" sketch:type="MSShapeGroup"/><path d="M9.715 28.906c-.776.776-2.028.781-2.81-.001-.776-.776-.782-2.028-.001-2.81l8.191-8.191c.776-.776 2.028-.781 2.81.001.776.776.782 2.028.001 2.81l-8.191 8.191z" sketch:type="MSShapeGroup"/></g></svg>