<svg width="30" height="30" viewBox="0 0 30 30" xmlns="http://www.w3.org/2000/svg" xmlns:sketch="http://www.bohemiancoding.com/sketch/ns"><title>arrow-up</title><desc>Created with Sketch.</desc><g sketch:type="MSLayerGroup"><path d="M13.317 6.061c.773-.773 2.024-.777 2.806.005.776.776.779 2.032.005 2.806l-12.228 12.228c-.773.773-2.024.777-2.806-.005-.776-.776-.779-2.032-.005-2.806l12.228-12.228" sketch:type="MSShapeGroup"/><path d="M28.406 18.785c.776.776.781 2.028-.001 2.81-.776.776-2.028.782-2.81.001l-8.191-8.191c-.776-.776-.781-2.028.001-2.81.776-.776 2.028-.782 2.81-.001l8.191 8.191z" sketch:type="MSShapeGroup"/></g></svg>