<svg width="30" height="30" viewBox="0 0 30 30" xmlns="http://www.w3.org/2000/svg" xmlns:sketch="http://www.bohemiancoding.com/sketch/ns"><title>check</title><desc>Created with Sketch.</desc><g sketch:type="MSArtboardGroup"><path d="M11.123 26.84c.776-.768.779-2.012.005-2.778l-6.066-6.067c-.773-.766-2.024-.769-2.806.005-.776.768-.779 2.012-.005 2.778l6.066 6.067c.773.766 2.024.769 2.806-.005zM28.859 5.955c-.776-.776-2.028-.782-2.81-.001l-13.645 13.641c-.776.776-.781 2.028.001 2.81.776.776 2.028.782 2.81.001l13.645-13.641c.776-.776.781-2.028-.001-2.81z" sketch:type="MSShapeGroup"/></g></svg>