<svg xmlns="http://www.w3.org/2000/svg" viewBox="0 0 990 990"><defs><style>.dc33ee73-caa7-402c-824d-c058c615ad86{fill:#231f20;}.\32 7c67b0d-fa8d-4811-8845-9b6977dc2582{fill:#fbfbf6;}</style></defs><title>info</title><g id="4a06797f-bfd9-470d-b2c5-f8af2c1445ee" data-name="Layer 2"><g id="1eb220de-76ab-4835-ac1c-d3df61bb8a00" data-name="Layer 1"><circle class="dc33ee73-caa7-402c-824d-c058c615ad86" cx="495" cy="495" r="495"/><path class="27c67b0d-fa8d-4811-8845-9b6977dc2582" d="M473.4,833.18c-71.7,0-117.48-34.55-117.48-96.75,0-19,5.18-43.19,14.68-67.38l71.7-184c6-15.55,13-36.28,13-53.56,0-14.68-7.77-23.32-20.73-23.32-23.32,0-51.83,20.73-88.11,123.52l-14.68-4.32c38.87-112.29,73.42-152,149.44-152,71.7,0,115.75,36.28,115.75,98.47,0,19-6,44.92-15.55,69.1l-71.7,183.13c-6,15.55-12.09,34.55-12.09,51.83,0,14.68,8.64,22.46,21.59,22.46,21.6,0,51-20.73,87.24-123.52l14.68,4.32C582.24,793.44,546.83,833.18,473.4,833.18Zm86.38-496.68c-55.28,0-95-35.42-95-90.7,0-54.42,40.6-89,95.88-89,57,0,97.61,34.55,97.61,89C658.26,301.08,616.8,336.49,559.78,336.49Z"/></g></g></svg>